# xmcd
#
# Track frame offsets: 
#        150
#        14728
#        27048
#        40255
#        51659
#        62702
#        78633
#        87958
#        99193
#        110491
#
# Disc length: 1651 seconds
#
# Revision: 0
# Processed by: cddbd v1.5PL3 Copyright (c) Steve Scherf et al.
# Submitted via: ExactAudioCopy v0.95a3
#
DISCID=7f06710a
DTITLE=Carlos Malcom and The Fireburners - Bustin' Outta The Ghetto
DYEAR=1970
DGENRE=Funk
TTITLE0=Bustin' Ottta The Ghetto
TTITLE1=Truck Full Of Soul
TTITLE2=Pound For Pound #1
TTITLE3=Move With The Beat
TTITLE4=Funky Junction
TTITLE5=Play It For The World
TTITLE6=Rockin' In My Rocket
TTITLE7=Bounce What You Got
TTITLE8=Pound For Pound #2
TTITLE9=Your Kiss Your Touch
EXTD=
EXTT0=
EXTT1=
EXTT2=
EXTT3=
EXTT4=
EXTT5=
EXTT6=
EXTT7=
EXTT8=
EXTT9=
PLAYORDER=
